PathFileType	4	(X/Y/Z)	E:\3-PhD\Data\MocapData\ElaboratedData\015\pre\dynamicElaborations\Run_baselineA1\Run_baselineA1.trc
DataRate	CameraRate	NumFrames	NumMarkers	Units	OrigDataRate	OrigDataStartFrame	OrigNumFrames
200	200	4	61	mm	200	8.550000e+02	99
Frame#	Time	FHD			LBHD			RBHD			C7			T10			CLAV			LSHO			LUUPA			LMUPA			LDUPA			LLEP			LMEP			LRAD			LUL			LRFIN			RSHO			RUPA1			RMUPA			RDUPA			RLEP			RMEP			RRAD			RUL			RUFIN			LASI			RASI			USACR			LSACR			RSACR			LTHI1			LTHI2			LTHI3			LTHI4			LLFC			LMFC			LTIB1			LTIB2			LTIB3			LTIB4			LLMAL			LMMAL			LHEE			LMT1			LMT5			LMT2			RTHI			RTHI2			RTHI3			RTHI4			RLFC			RMFC			RTIB1			RTIB2			RTIB3			RTIB4			RLMAL			RMMAL			RHEE			RMT1			RMT2			RMT5		
		X1	Y1	Z1	X2	Y2	Z2	X3	Y3	Z3	X4	Y4	Z4	X5	Y5	Z5	X6	Y6	Z6	X7	Y7	Z7	X8	Y8	Z8	X9	Y9	Z9	X10	Y10	Z10	X11	Y11	Z11	X12	Y12	Z12	X13	Y13	Z13	X14	Y14	Z14	X15	Y15	Z15	X16	Y16	Z16	X17	Y17	Z17	X18	Y18	Z18	X19	Y19	Z19	X20	Y20	Z20	X21	Y21	Z21	X22	Y22	Z22	X23	Y23	Z23	X24	Y24	Z24	X25	Y25	Z25	X26	Y26	Z26	X27	Y27	Z27	X28	Y28	Z28	X29	Y29	Z29	X30	Y30	Z30	X31	Y31	Z31	X32	Y32	Z32	X33	Y33	Z33	X34	Y34	Z34	X35	Y35	Z35	X36	Y36	Z36	X37	Y37	Z37	X38	Y38	Z38	X39	Y39	Z39	X40	Y40	Z40	X41	Y41	Z41	X42	Y42	Z42	X43	Y43	Z43	X44	Y44	Z44	X45	Y45	Z45	X46	Y46	Z46	X47	Y47	Z47	X48	Y48	Z48	X49	Y49	Z49	X50	Y50	Z50	X51	Y51	Z51	X52	Y52	Z52	X53	Y53	Z53	X54	Y54	Z54	X55	Y55	Z55	X56	Y56	Z56	X57	Y57	Z57	X58	Y58	Z58	X59	Y59	Z59	X60	Y60	Z60	X61	Y61	Z61	
867	4.330000	-3494.771079	1433.321487	220.002522	-3627.620299	1490.634708	208.522583	-3637.558578	1493.502159	335.677231	-3769.259061	1416.118053	296.134281	-3959.461931	1138.626172	321.166668	-3684.611151	1281.587597	253.808877	-3727.409404	1393.076414	93.373341	-3870.202701	1302.978862	-12.279327	-3877.879886	1256.196177	-10.720045	-3924.426504	1273.327399	-40.992009	-4002.393124	1250.854166	-57.927177	-4032.088102	1234.129508	35.991205	-3918.887841	994.843503	-6.145679	-3874.609247	1036.178165	34.188428	-3817.285730	960.968043	39.001255	-3686.485930	1347.345607	447.856460	-3728.473840	1182.586889	538.332462	-3709.237573	1144.868186	517.337667	-3742.685998	1115.876159	557.309626	-3761.391924	1007.485831	556.604559	-3838.635287	1014.551205	513.641995	-3628.821133	982.934757	331.637506	-3612.167241	910.528642	349.069657	-3551.519279	982.233903	302.689183	-3883.946515	950.393741	169.318883	-3865.834598	907.706747	406.649787	-4018.064186	1047.795273	322.539063	-4038.526539	1020.341197	296.651212	-4027.812433	1016.962747	351.216675	-3834.140835	701.962090	95.551242	-3755.976204	666.257391	94.350380	-3719.017883	698.993382	99.001802	-3737.813933	613.558827	120.998379	-3694.217888	550.414518	137.289858	-3699.118385	559.193115	253.873316	-3657.007751	392.914593	186.833604	-3710.497396	350.106903	129.851916	-3677.011387	347.037663	159.055116	-3699.444107	270.561487	193.223834	-3781.084539	148.532895	173.251790	-3774.437187	165.684916	258.671148	-3856.447838	92.893488	221.698821	-3646.265479	121.896283	254.794949	-3672.197797	81.789300	158.833076	-3641.748366	118.382051	205.161656	-3948.558834	715.427743	451.947751	-3938.375470	653.307044	429.084240	-3910.127641	650.798860	405.161635	-3995.414045	588.774046	422.997507	-4138.099629	452.804615	387.520565	-4143.797329	460.689508	262.714282	-4325.839983	352.449407	332.889070	-4412.857116	395.198059	381.046586	-4404.984366	355.071421	360.831872	-4452.576856	340.350784	326.773997	-4534.729626	363.580579	362.171716	-4524.490328	380.777100	280.716790	-4577.232077	456.048616	333.690021	-4606.625639	250.645954	249.498317	-4607.070534	242.764675	291.981727	-4638.900883	271.056127	349.912726	
868	4.335000	-3467.784736	1432.333859	219.990699	-3600.478368	1489.744569	208.387570	-3610.577775	1492.725400	335.530775	-3741.661661	1415.784718	295.327919	-3934.201975	1140.437828	320.244951	-3658.382026	1280.610223	253.521811	-3701.720867	1390.449450	91.755163	-3843.779284	1294.708421	-12.719359	-3849.584128	1247.234617	-9.887039	-3896.580807	1261.833977	-40.806936	-3973.795787	1236.916828	-57.445224	-4003.034735	1221.465376	36.929393	-3881.839172	985.904242	-0.479113	-3839.012161	1029.329970	39.343422	-3779.562064	956.666691	45.327043	-3660.532125	1344.699072	448.229107	-3708.480341	1181.852600	539.828784	-3690.197624	1143.396039	519.184287	-3724.851648	1115.793837	559.213073	-3746.195099	1007.799709	559.871878	-3821.774987	1016.662913	514.842989	-3609.162498	968.323743	339.747063	-3595.929895	896.115653	360.968457	-3530.970541	962.977701	313.591030	-3859.643458	951.274006	167.717006	-3839.357629	909.465162	405.413923	-3993.068696	1047.879766	322.296879	-4013.758927	1020.227190	296.660442	-4002.570026	1017.255620	351.136469	-3814.791325	698.033965	93.929172	-3737.835048	659.989959	91.955386	-3699.720475	691.400507	96.266058	-3720.893837	606.834649	118.423744	-3678.083466	541.451986	134.498460	-3680.810039	550.465420	252.131132	-3639.392886	384.076858	184.473936	-3692.935278	340.224014	128.310201	-3658.976031	337.711705	157.208756	-3680.421774	261.258688	191.994630	-3761.382176	138.789900	173.688648	-3753.284380	156.295464	258.829696	-3836.105387	84.380269	223.537110	-3625.541365	112.138292	253.013831	-3653.243405	71.734780	157.540387	-3621.791780	108.275017	203.482587	-3918.615869	715.343648	452.363174	-3906.430385	653.435448	430.458173	-3877.715476	651.779090	406.617208	-3961.004894	586.862679	424.355879	-4097.832284	448.275261	388.583095	-4102.141713	454.066503	263.344539	-4287.814574	355.651421	334.376066	-4373.212609	403.095900	381.408891	-4367.063361	362.611823	361.882760	-4415.217241	349.316954	327.402972	-4496.046785	376.929791	362.366956	-4484.574054	392.422033	280.654490	-4534.307738	470.422338	332.232050	-4571.386184	264.874543	251.045835	-4572.498403	257.732074	293.701680	-4603.896085	288.096141	350.610975	
869	4.340000	-3440.882694	1431.223049	220.258650	-3573.444284	1488.702433	208.401839	-3583.817302	1491.736253	335.525970	-3714.214990	1415.212932	294.477043	-3908.878042	1141.810218	319.075541	-3632.174961	1279.371915	253.330856	-3676.047185	1387.581843	90.212505	-3816.799673	1285.665192	-13.027563	-3820.762819	1237.744292	-8.799833	-3868.078954	1249.704292	-40.462491	-3944.400076	1222.251340	-56.838332	-3973.341104	1208.209854	37.913064	-3843.908452	976.917040	5.439449	-3802.734258	1022.407912	44.766166	-3741.098669	952.469977	51.987219	-3634.869583	1341.899013	448.649662	-3688.730450	1181.189868	541.293111	-3671.400399	1141.995018	521.031979	-3707.247449	1115.848147	561.143426	-3731.325541	1008.394837	563.308365	-3805.051191	1018.710814	516.091172	-3590.349337	954.227111	348.796423	-3580.515759	882.543857	373.760022	-3511.556587	944.437691	325.600198	-3835.350199	951.808534	166.069635	-3812.943699	911.031146	404.216243	-3968.082557	1047.499778	321.894335	-3988.965962	1019.654971	296.520208	-3977.361172	1017.107654	350.931081	-3795.973335	693.902793	92.392992	-3720.397181	653.419526	89.677832	-3681.143090	683.422424	93.537672	-3704.747455	599.843581	116.034681	-3662.694114	532.237874	131.800400	-3663.130146	541.519289	250.459705	-3623.216833	374.872069	182.116043	-3677.051564	330.382896	126.776679	-3642.604411	328.211195	155.292879	-3663.536881	251.880015	190.613879	-3744.410912	129.711242	174.061975	-3734.765320	147.224164	258.976203	-3818.760860	76.925720	225.195953	-3607.679022	102.351379	250.765195	-3637.454809	62.291905	155.587583	-3604.766014	98.279928	201.381180	-3888.595601	715.163438	452.888528	-3874.132746	653.738613	432.048246	-3845.164134	652.808364	408.369432	-3926.246620	585.076522	426.036733	-4056.862268	444.092994	389.950378	-4059.559025	447.527565	264.245996	-4248.375126	358.642795	336.074694	-4332.110904	410.657355	381.808758	-4327.604536	369.739185	362.964362	-4376.218648	357.718319	328.142166	-4455.536757	389.611498	362.512270	-4442.930902	403.025768	280.471013	-4490.100378	483.638952	330.295602	-4533.653730	277.593463	253.318528	-4535.398626	271.404538	296.120481	-4566.382630	303.921008	351.916185	
870	4.345000	-3414.084396	1430.030242	220.807927	-3546.542641	1487.537292	208.546999	-3557.316549	1490.565093	335.645079	-3686.994602	1414.402676	293.574463	-3883.501571	1142.685913	317.697615	-3605.988848	1277.879645	253.228489	-3650.399050	1384.507150	88.749191	-3789.205179	1275.966492	-13.185904	-3791.384651	1227.833495	-7.444865	-3838.861285	1237.090156	-39.940262	-3914.131715	1206.991380	-56.084635	-3942.968861	1194.452604	38.943618	-3805.115530	968.016566	11.594615	-3765.797374	1015.541191	50.439507	-3701.949215	948.502788	58.957597	-3609.527345	1339.030523	449.122043	-3669.195416	1180.676160	542.747891	-3652.783510	1140.741113	522.931282	-3689.816513	1116.102920	563.119187	-3716.718692	1009.348142	566.937040	-3788.439698	1020.742454	517.467902	-3572.380091	940.893829	358.719928	-3565.907454	870.042173	387.304536	-3493.272397	926.897292	338.596582	-3811.103108	952.039893	164.405838	-3786.596217	912.355056	403.008067	-3943.111105	1046.676191	321.348970	-3964.146468	1018.647580	296.242588	-3952.184343	1016.524430	350.613047	-3777.683626	689.540532	91.001160	-3703.652388	646.554231	87.566829	-3663.299426	675.087336	90.802779	-3689.328124	592.618047	113.905574	-3648.026621	522.856654	129.231215	-3646.111934	532.421223	248.814918	-3608.466449	365.376523	179.753736	-3662.924845	320.709476	125.331158	-3627.969796	318.626261	153.352055	-3648.818441	242.520545	189.173469	-3730.186909	121.447640	174.502512	-3718.994196	138.631980	259.255707	-3804.436240	70.594068	226.742793	-3592.746794	92.905569	248.280316	-3624.771718	53.772365	153.182084	-3590.700072	88.751694	199.091606	-3858.419342	714.895757	453.476342	-3841.404859	654.207277	433.785525	-3812.413590	653.895219	410.309758	-3891.063006	583.426185	427.981125	-4015.160141	440.276999	391.583980	-4016.119584	441.183569	265.406659	-4207.590984	361.420437	337.916253	-4289.638328	417.791693	382.240074	-4286.689342	376.375042	364.033415	-4335.693569	365.487639	328.978655	-4413.338612	401.480651	362.630455	-4399.758980	412.562036	280.206780	-4444.920550	495.608038	328.017177	-4493.542220	288.711141	256.240507	-4495.838688	283.637675	299.151178	-4526.428404	318.301835	353.806151	
